<svg xmlns="http://www.w3.org/2000/svg" viewBox="0 0 32 32">
  <defs>
    <linearGradient id="faviconGradient" x1="0%" y1="0%" x2="100%" y2="100%">
      <stop offset="0%" style="stop-color:#8B5CF6;stop-opacity:1" />
      <stop offset="100%" style="stop-color:#06B6D4;stop-opacity:1" />
    </linearGradient>
  </defs>
  
  <!-- Background with rounded corners -->
  <rect x="2" y="2" width="28" height="28" rx="6" fill="url(#faviconGradient)"/>
  
  <!-- Globe outline -->
  <g fill="none" stroke="white" stroke-width="1.5" stroke-linecap="round">
    <!-- Main circle -->
    <circle cx="16" cy="16" r="10"/>
    <!-- Equator -->
    <path d="M6 16h20"/>
    <!-- Meridians -->
    <path d="M16 6a10 10 0 0 1 0 20"/>
    <path d="M16 6a10 10 0 0 0 0 20"/>
    <!-- Parallels -->
    <path d="M8 10a8 8 0 0 1 16 0"/>
    <path d="M8 22a8 8 0 0 1 16 0"/>
  </g>
  
  <!-- Lightning bolt -->
  <path d="M12 8l-2 6h4l-2 8 8-10h-4l2-4z" fill="white"/>
</svg> 